<svg width="180" height="50" viewBox="0 0 180 50" fill="none" xmlns="http://www.w3.org/2000/svg">
<g clip-path="url(#clip0_516_16)">
<path d="M20.2159 25.454C19.5064 18.9986 26.2684 13.8132 35.3253 13.892C44.3823 13.9621 52.3005 19.2526 53.01 25.6993C53.7195 32.1635 46.9575 37.3314 37.9005 37.2613C28.8436 37.2 20.9253 31.9095 20.2159 25.454ZM54.7005 27.4599C53.8859 19.454 44.7677 12.8934 34.3443 12.8059C23.9122 12.7183 16.1341 19.1387 16.9487 27.1445C17.7633 35.1504 26.8815 41.711 37.3049 41.7986C47.7283 41.8774 55.5239 35.4657 54.7005 27.4599Z" fill="#FBB584"/>
<path d="M38.9608 41.9562C33.828 47.3256 25.5856 47.7723 20.5491 42.9548C15.5214 38.1372 15.6002 29.8862 20.7418 24.5256C25.8747 19.165 34.1258 18.7183 39.1448 23.527C44.1725 28.3445 44.0937 36.5956 38.9521 41.9562M19.9448 24.3504C13.9798 30.5869 13.8834 40.1781 19.7258 45.7752C25.5681 51.3723 35.1506 50.8555 41.1156 44.619C47.0893 38.3825 47.1856 28.7913 41.3345 23.1942C35.4922 17.5971 25.9097 18.1139 19.936 24.3504" fill="#F89B6C"/>
<path d="M20.4883 4.2738C31.1657 0.27088 41.7292 4.3176 44.0766 13.3132C46.4241 22.3088 39.6708 32.8548 28.9934 36.849C18.3161 40.8519 7.75255 36.8052 5.40511 27.8096C3.0489 18.8139 9.81095 8.27672 20.4883 4.2738ZM10.573 7.70738C-0.507299 16.484 -3.32774 29.1935 4.26642 36.0957C11.8693 43.0066 27.0051 41.4913 38.0942 32.7147C49.1745 23.9468 51.9949 11.2373 44.392 4.32636C36.7891 -2.57584 21.6445 -1.06051 10.573 7.70738Z" fill="#F37321"/>
<path d="M80.2071 14.8818V34.7387H77.0976V24.2628H65.3253V34.7387H62.2158V14.8818H65.3253V21.5475H77.0976V14.8818H80.2071Z" fill="black"/>
<path d="M87.6698 34.7387C86.2158 34.7387 85.0684 34.3358 84.2187 33.5212C83.3516 32.7066 82.9224 31.6643 82.9224 30.3854V29.3256C82.9224 28.0292 83.3516 26.9781 84.2187 26.1635C85.0684 25.3314 86.2158 24.9197 87.6698 24.9197H95.7808V24.8409C95.7808 23.2467 94.9048 22.4584 93.1618 22.4584H84.1399V19.8132H93.1092C94.9749 19.8132 96.4027 20.2862 97.3837 21.2409C98.3822 22.1606 98.8903 23.492 98.8903 25.2351V30.4993C98.8903 31.8482 98.4348 32.9081 97.5151 33.6876C96.683 34.3971 95.518 34.7475 94.0114 34.7475H87.6611L87.6698 34.7387ZM93.3545 27.5562H88.4319C86.8377 27.5562 86.0494 28.2307 86.0494 29.5796V30.0701C86.0494 31.4015 86.8465 32.0672 88.4319 32.0672H93.3545C94.9749 32.0672 95.7895 31.4015 95.7895 30.0701V29.5796C95.7895 28.2307 94.9749 27.5562 93.3545 27.5562Z" fill="black"/>
<path d="M108 19.8044H111.057C112.992 19.8044 114.517 20.365 115.62 21.4862C116.724 22.6073 117.276 24.1752 117.276 26.181V34.7387H114.166V26.3387C114.166 25.0949 113.921 24.184 113.439 23.6146C112.835 22.8701 111.959 22.5022 110.82 22.5022H108.175C107.071 22.5022 106.204 22.8701 105.582 23.6146C105.136 24.184 104.908 25.0949 104.908 26.3387V34.7387H101.798V26.181C101.798 24.1752 102.35 22.6161 103.454 21.4862C104.557 20.365 106.073 19.8044 107.991 19.8044H108Z" fill="black"/>
<path d="M131.615 32.7416C130.511 34.073 129.136 34.7387 127.489 34.7387H125.571C123.845 34.7387 122.47 34.1956 121.445 33.1095C120.473 32.0935 119.991 30.6482 119.991 28.7825V19.8132H123.074V28.8088C123.074 29.8949 123.311 30.692 123.775 31.1913C124.309 31.7606 125.01 32.0497 125.877 32.0497H127.226C128.111 32.0497 128.82 31.7606 129.355 31.1913C129.836 30.692 130.082 29.8949 130.082 28.8088V19.8132H133.139V28.8088C133.139 29.8949 133.375 30.692 133.839 31.1913C134.374 31.7606 135.074 32.0497 135.942 32.0497H137.29C138.175 32.0497 138.885 31.7606 139.419 31.1913C139.901 30.692 140.146 29.8949 140.146 28.8088V19.8132H143.229V28.7825C143.229 30.6482 142.73 32.0935 141.723 33.1095C140.707 34.1956 139.323 34.7387 137.571 34.7387H135.679C134.067 34.7387 132.718 34.073 131.606 32.7416H131.615Z" fill="black"/>
<path d="M152.365 22.5022C151.261 22.5022 150.394 22.8701 149.772 23.6146C149.326 24.184 149.098 25.0949 149.098 26.3387V34.7387H145.988V14.8292H149.098V20.7153C150 20.111 151.025 19.8044 152.181 19.8044H155.238C157.174 19.8044 158.698 20.365 159.801 21.4862C160.905 22.6073 161.457 24.1752 161.457 26.181V34.7387H158.347V26.3387C158.347 25.0949 158.102 24.184 157.62 23.6146C157.016 22.8701 156.14 22.5022 155.001 22.5022H152.356H152.365Z" fill="black"/>
<path d="M168.77 34.7387C167.316 34.7387 166.169 34.3358 165.319 33.5212C164.452 32.7066 164.023 31.6643 164.023 30.3854V29.3256C164.023 28.0292 164.452 26.9781 165.319 26.1635C166.169 25.3314 167.316 24.9197 168.77 24.9197H176.881V24.8409C176.881 23.2467 176.005 22.4584 174.262 22.4584H165.24V19.8132H174.21C176.076 19.8132 177.503 20.2862 178.484 21.2409C179.483 22.1606 179.991 23.492 179.991 25.2351V30.4993C179.991 31.8482 179.535 32.9081 178.616 33.6876C177.784 34.3971 176.619 34.7475 175.112 34.7475H168.762L168.77 34.7387ZM174.446 27.5562H169.524C167.93 27.5562 167.141 28.2307 167.141 29.5796V30.0701C167.141 31.4015 167.938 32.0672 169.524 32.0672H174.446C176.067 32.0672 176.881 31.4015 176.881 30.0701V29.5796C176.881 28.2307 176.067 27.5562 174.446 27.5562Z" fill="black"/>
</g>
<defs>
<clipPath id="clip0_516_16">
<rect width="180" height="49.6555" fill="white"/>
</clipPath>
</defs>
</svg>
