<svg width="26" height="27" viewBox="0 0 26 27" fill="none" xmlns="http://www.w3.org/2000/svg">
<g clip-path="url(#clip0_516_28)">
<g clip-path="url(#clip1_516_28)">
<mask id="mask0_516_28" style="mask-type:luminance" maskUnits="userSpaceOnUse" x="-6" y="-1" width="49" height="29">
<path d="M42.4918 -0.172243H-5.5V27.8278H42.4918V-0.172243Z" fill="white"/>
</mask>
<g mask="url(#mask0_516_28)">
<path d="M42.4918 25.6684H-5.5V27.8278H42.4918V25.6684Z" fill="#CB001C"/>
<path d="M42.4918 23.5234H-5.5V25.6827H42.4918V23.5234Z" fill="white"/>
<path d="M42.4918 21.364H-5.5V23.5091H42.4918V21.364Z" fill="#CB001C"/>
<path d="M42.4918 19.219H-5.5V21.3783H42.4918V19.219Z" fill="white"/>
<path d="M42.4918 17.0596H-5.5V19.219H42.4918V17.0596Z" fill="#CB001C"/>
<path d="M42.4918 14.9003H-5.5V17.0453H42.4918V14.9003Z" fill="white"/>
<path d="M42.4918 12.7552H-5.5V14.9146H42.4918V12.7552Z" fill="#CB001C"/>
<path d="M42.4918 10.5959H-5.5V12.7409H42.4918V10.5959Z" fill="white"/>
<path d="M42.4918 8.45084H-5.5V10.6102H42.4918V8.45084Z" fill="#CB001C"/>
<path d="M42.4918 6.2915H-5.5V8.45084H42.4918V6.2915Z" fill="white"/>
<path d="M42.4918 4.13215H-5.5V6.2915H42.4918V4.13215Z" fill="#CB001C"/>
<path d="M42.4918 1.9871H-5.5V4.14645H42.4918V1.9871Z" fill="white"/>
<path d="M42.4918 -0.172243H-5.5V1.9871H42.4918V-0.172243Z" fill="#CB001C"/>
<path d="M16.4224 -0.172243H-5.5V14.9003H16.4224V-0.172243Z" fill="#2A3560"/>
<path d="M0.00575501 1.48659L0.191659 2.0586H0.792272L0.306062 2.41611L0.491966 2.98812L0.00575501 2.63062L-0.480455 2.98812L-0.294551 2.41611L-0.780762 2.0586H-0.180149L0.00575501 1.48659Z" fill="white"/>
<path d="M0.00575501 4.00345L0.191659 4.57546H0.792272L0.306062 4.93297L0.491966 5.50498L0.00575501 5.14747L-0.480455 5.50498L-0.294551 4.93297L-0.780762 4.57546H-0.180149L0.00575501 4.00345Z" fill="white"/>
<path d="M0.00575501 6.5203L0.191659 7.09231H0.792272L0.306062 7.44982L0.491966 8.02183L0.00575501 7.66432L-0.480455 8.02183L-0.294551 7.44982L-0.780762 7.09231H-0.180149L0.00575501 6.5203Z" fill="white"/>
<path d="M0.00575501 9.03715L0.191659 9.60917H0.792272L0.306062 9.96667L0.491966 10.5244L0.00575501 10.1812L-0.480455 10.5244L-0.294551 9.96667L-0.780762 9.60917H-0.180149L0.00575501 9.03715Z" fill="white"/>
<path d="M0.00575501 11.554L0.191659 12.126H0.792272L0.306062 12.4835L0.491966 13.0412L0.00575501 12.698L-0.480455 13.0412L-0.294551 12.4835L-0.780762 12.126H-0.180149L0.00575501 11.554Z" fill="white"/>
<path d="M1.76454 2.81652L1.95045 3.38853H2.55106L2.06485 3.74604L2.25075 4.30375L1.76454 3.96055L1.27833 4.30375L1.46424 3.74604L0.978027 3.38853H1.57864L1.76454 2.81652Z" fill="white"/>
<path d="M1.76454 5.33338L1.95045 5.90539H2.55106L2.06485 6.2486L2.25075 6.82061L1.76454 6.4774L1.27833 6.82061L1.46424 6.2486L0.978027 5.90539H1.57864L1.76454 5.33338Z" fill="white"/>
<path d="M1.76454 7.85023L1.95045 8.42224H2.55106L2.06485 8.76545L2.25075 9.33746L1.76454 8.99425L1.27833 9.33746L1.46424 8.76545L0.978027 8.42224H1.57864L1.76454 7.85023Z" fill="white"/>
<path d="M1.76454 10.3671L1.95045 10.9391H2.55106L2.06485 11.2823L2.25075 11.8543L1.76454 11.4968L1.27833 11.8543L1.46424 11.2823L0.978027 10.9391H1.57864L1.76454 10.3671Z" fill="white"/>
<path d="M3.53798 1.48659L3.72389 2.0586H4.3245L3.83829 2.41611L4.02419 2.98812L3.53798 2.63062L3.05177 2.98812L3.23768 2.41611L2.75146 2.0586H3.35208L3.53798 1.48659Z" fill="white"/>
<path d="M3.53798 4.00345L3.72389 4.57546H4.3245L3.83829 4.93297L4.02419 5.50498L3.53798 5.14747L3.05177 5.50498L3.23768 4.93297L2.75146 4.57546H3.35208L3.53798 4.00345Z" fill="white"/>
<path d="M3.53798 6.5203L3.72389 7.09231H4.3245L3.83829 7.44982L4.02419 8.02183L3.53798 7.66432L3.05177 8.02183L3.23768 7.44982L2.75146 7.09231H3.35208L3.53798 6.5203Z" fill="white"/>
<path d="M3.53798 9.03715L3.72389 9.60917H4.3245L3.83829 9.96667L4.02419 10.5244L3.53798 10.1812L3.05177 10.5244L3.23768 9.96667L2.75146 9.60917H3.35208L3.53798 9.03715Z" fill="white"/>
<path d="M3.53798 11.554L3.72389 12.126H4.3245L3.83829 12.4835L4.02419 13.0412L3.53798 12.698L3.05177 13.0412L3.23768 12.4835L2.75146 12.126H3.35208L3.53798 11.554Z" fill="white"/>
<path d="M5.29677 2.81652L5.46837 3.38853H6.06899L5.58278 3.74604L5.76868 4.30375L5.29677 3.96055L4.81056 4.30375L4.98216 3.74604L4.51025 3.38853H5.09657L5.29677 2.81652Z" fill="white"/>
<path d="M5.29677 5.33338L5.46837 5.90539H6.06899L5.58278 6.2486L5.76868 6.82061L5.29677 6.4774L4.81056 6.82061L4.98216 6.2486L4.51025 5.90539H5.09657L5.29677 5.33338Z" fill="white"/>
<path d="M5.29677 7.85023L5.46837 8.42224H6.06899L5.58278 8.76545L5.76868 9.33746L5.29677 8.99425L4.81056 9.33746L4.98216 8.76545L4.51025 8.42224H5.09657L5.29677 7.85023Z" fill="white"/>
<path d="M5.29677 10.3671L5.46837 10.9391H6.06899L5.58278 11.2823L5.76868 11.8543L5.29677 11.4968L4.81056 11.8543L4.98216 11.2823L4.51025 10.9391H5.09657L5.29677 10.3671Z" fill="white"/>
<path d="M7.05591 1.48659L7.24181 2.0586H7.84242L7.35621 2.41611L7.54212 2.98812L7.05591 2.63062L6.584 2.98812L6.7556 2.41611L6.28369 2.0586H6.87L7.05591 1.48659Z" fill="white"/>
<path d="M7.05591 4.00345L7.24181 4.57546H7.84242L7.35621 4.93297L7.54212 5.50498L7.05591 5.14747L6.584 5.50498L6.7556 4.93297L6.28369 4.57546H6.87L7.05591 4.00345Z" fill="white"/>
<path d="M7.05591 6.5203L7.24181 7.09231H7.84242L7.35621 7.44982L7.54212 8.02183L7.05591 7.66432L6.584 8.02183L6.7556 7.44982L6.28369 7.09231H6.87L7.05591 6.5203Z" fill="white"/>
<path d="M7.05591 9.03715L7.24181 9.60917H7.84242L7.35621 9.96667L7.54212 10.5244L7.05591 10.1812L6.584 10.5244L6.7556 9.96667L6.28369 9.60917H6.87L7.05591 9.03715Z" fill="white"/>
<path d="M7.05591 11.554L7.24181 12.126H7.84242L7.35621 12.4835L7.54212 13.0412L7.05591 12.698L6.584 13.0412L6.7556 12.4835L6.28369 12.126H6.87L7.05591 11.554Z" fill="white"/>
<path d="M8.81484 2.81652L9.00074 3.38853H9.60135L9.11514 3.74604L9.30105 4.30375L8.81484 3.96055L8.32863 4.30375L8.51453 3.74604L8.02832 3.38853H8.62893L8.81484 2.81652Z" fill="white"/>
<path d="M8.81484 5.33338L9.00074 5.90539H9.60135L9.11514 6.2486L9.30105 6.82061L8.81484 6.4774L8.32863 6.82061L8.51453 6.2486L8.02832 5.90539H8.62893L8.81484 5.33338Z" fill="white"/>
<path d="M8.81484 7.85023L9.00074 8.42224H9.60135L9.11514 8.76545L9.30105 9.33746L8.81484 8.99425L8.32863 9.33746L8.51453 8.76545L8.02832 8.42224H8.62893L8.81484 7.85023Z" fill="white"/>
<path d="M8.81484 10.3671L9.00074 10.9391H9.60135L9.11514 11.2823L9.30105 11.8543L8.81484 11.4968L8.32863 11.8543L8.51453 11.2823L8.02832 10.9391H8.62893L8.81484 10.3671Z" fill="white"/>
<path d="M10.5876 1.48659L10.7736 2.0586H11.3742L10.888 2.41611L11.0739 2.98812L10.5876 2.63062L10.1157 2.98812L10.2873 2.41611L9.81543 2.0586H10.4017L10.5876 1.48659Z" fill="white"/>
<path d="M10.5876 4.00345L10.7736 4.57546H11.3742L10.888 4.93297L11.0739 5.50498L10.5876 5.14747L10.1157 5.50498L10.2873 4.93297L9.81543 4.57546H10.4017L10.5876 4.00345Z" fill="white"/>
<path d="M10.5876 6.5203L10.7736 7.09231H11.3742L10.888 7.44982L11.0739 8.02183L10.5876 7.66432L10.1157 8.02183L10.2873 7.44982L9.81543 7.09231H10.4017L10.5876 6.5203Z" fill="white"/>
<path d="M10.5876 9.03715L10.7736 9.60917H11.3742L10.888 9.96667L11.0739 10.5244L10.5876 10.1812L10.1157 10.5244L10.2873 9.96667L9.81543 9.60917H10.4017L10.5876 9.03715Z" fill="white"/>
<path d="M10.5876 11.554L10.7736 12.126H11.3742L10.888 12.4835L11.0739 13.0412L10.5876 12.698L10.1157 13.0412L10.2873 12.4835L9.81543 12.126H10.4017L10.5876 11.554Z" fill="white"/>
<path d="M12.3466 2.81652L12.5325 3.38853H13.1331L12.6469 3.74604L12.8185 4.30375L12.3466 3.96055L11.8604 4.30375L12.0463 3.74604L11.5601 3.38853H12.1607L12.3466 2.81652Z" fill="white"/>
<path d="M12.3466 5.33338L12.5325 5.90539H13.1331L12.6469 6.2486L12.8185 6.82061L12.3466 6.4774L11.8604 6.82061L12.0463 6.2486L11.5601 5.90539H12.1607L12.3466 5.33338Z" fill="white"/>
<path d="M12.3466 7.85023L12.5325 8.42224H13.1331L12.6469 8.76545L12.8185 9.33746L12.3466 8.99425L11.8604 9.33746L12.0463 8.76545L11.5601 8.42224H12.1607L12.3466 7.85023Z" fill="white"/>
<path d="M12.3466 10.3671L12.5325 10.9391H13.1331L12.6469 11.2823L12.8185 11.8543L12.3466 11.4968L11.8604 11.8543L12.0463 11.2823L11.5601 10.9391H12.1607L12.3466 10.3671Z" fill="white"/>
<path d="M14.12 1.48659L14.3059 2.0586H14.9065L14.4203 2.41611L14.6062 2.98812L14.12 2.63062L13.6338 2.98812L13.8197 2.41611L13.3335 2.0586H13.9341L14.12 1.48659Z" fill="white"/>
<path d="M14.12 4.00345L14.3059 4.57546H14.9065L14.4203 4.93297L14.6062 5.50498L14.12 5.14747L13.6338 5.50498L13.8197 4.93297L13.3335 4.57546H13.9341L14.12 4.00345Z" fill="white"/>
<path d="M14.12 6.5203L14.3059 7.09231H14.9065L14.4203 7.44982L14.6062 8.02183L14.12 7.66432L13.6338 8.02183L13.8197 7.44982L13.3335 7.09231H13.9341L14.12 6.5203Z" fill="white"/>
<path d="M14.12 9.03715L14.3059 9.60917H14.9065L14.4203 9.96667L14.6062 10.5244L14.12 10.1812L13.6338 10.5244L13.8197 9.96667L13.3335 9.60917H13.9341L14.12 9.03715Z" fill="white"/>
<path d="M14.12 11.554L14.3059 12.126H14.9065L14.4203 12.4835L14.6062 13.0412L14.12 12.698L13.6338 13.0412L13.8197 12.4835L13.3335 12.126H13.9341L14.12 11.554Z" fill="white"/>
</g>
</g>
</g>
<defs>
<clipPath id="clip0_516_28">
<rect y="0.827757" width="26" height="26" rx="13" fill="white"/>
</clipPath>
<clipPath id="clip1_516_28">
<rect width="47.9918" height="28" fill="white" transform="translate(-5.5 -0.172243)"/>
</clipPath>
</defs>
</svg>
